HIERARCHY
ROOT Hips
{
	OFFSET 0.0136489431 85.5290222 -2.13670418
	CHANNELS 6 Xposition Yposition Zposition Zrotation Yrotation Xrotation 
	JOINT Spine
	{
		OFFSET 2.30099286e-05 8.81424618 -2.08003235
		CHANNELS 3 Zrotation Yrotation Xrotation 
		JOINT Spine1
		{
			OFFSET 8.7261958e-07 8.84414387 -2.72457055e-06
			CHANNELS 3 Zrotation Yrotation Xrotation 
			JOINT Spine2
			{
				OFFSET -2.55740429e-06 11.682272 4.31642138e-06
				CHANNELS 3 Zrotation Yrotation Xrotation 
				JOINT Spine3
				{
					OFFSET 6.59586306e-07 11.7466984 -3.93247592e-06
					CHANNELS 3 Zrotation Yrotation Xrotation 
					JOINT Neck
					{
						OFFSET 8.48960008e-06 17.6582756 -8.42700974e-05
						CHANNELS 3 Zrotation Yrotation Xrotation 
						JOINT Neck1
						{
							OFFSET 3.79443094e-07 5.10151863 3.26421036e-06
							CHANNELS 3 Zrotation Yrotation Xrotation 
							JOINT Head
							{
								OFFSET -9.47953868e-06 5.10151625 8.86555881e-06
								CHANNELS 3 Zrotation Yrotation Xrotation 
								JOINT HeadEnd
								{
									OFFSET -4.13024277e-16 11.6550846 5.50596564e-14
									CHANNELS 3 Zrotation Yrotation Xrotation 
									End Site
									{
										OFFSET 0 0 0
									}
								}
							}
						}
					}
				}
				JOINT RightShoulder
				{
					OFFSET -2.62538743 11.1752224 -4.81263169e-06
					CHANNELS 3 Zrotation Yrotation Xrotation 
					JOINT RightArm
					{
						OFFSET -1.50603675e-06 10.4347115 1.24267818e-05
						CHANNELS 3 Zrotation Yrotation Xrotation 
						JOINT RightForeArm
						{
							OFFSET 0.069977134 25.8717893 -0.536955001
							CHANNELS 3 Zrotation Yrotation Xrotation 
							JOINT RightHand
							{
								OFFSET 0.298976964 24.8929021 -0.0338061789
								CHANNELS 3 Zrotation Yrotation Xrotation 
								JOINT RightHandThumb1
								{
									OFFSET -2.86730862 3.95956302 2.94429946
									CHANNELS 3 Zrotation Yrotation Xrotation 
									JOINT RightHandThumb2
									{
										OFFSET 5.44471726e-06 3.35039091 -6.88177021e-07
										CHANNELS 3 Zrotation Yrotation Xrotation 
										JOINT RightHandThumb3
										{
											OFFSET -5.18119812e-06 3.75651813 3.88906735e-06
											CHANNELS 3 Zrotation Yrotation Xrotation 
											JOINT RightHandThumb4
											{
												OFFSET -4.83070982e-07 3.1473465 -1.11636681e-06
												CHANNELS 3 Zrotation Yrotation Xrotation 
												End Site
												{
													OFFSET 0 0 0
												}
											}
										}
									}
								}
							}
							JOINT RightHandIndex1
							{
								OFFSET -0.0867566392 10.030899 2.34528232
								CHANNELS 3 Zrotation Yrotation Xrotation 
								JOINT RightHandIndex2
								{
									OFFSET -3.76662116e-06 4.06108809 3.41322158e-06
									CHANNELS 3 Zrotation Yrotation Xrotation 
									JOINT RightHandIndex3
									{
										OFFSET 2.12695065e-06 3.2488718 -2.91990217e-06
										CHANNELS 3 Zrotation Yrotation Xrotation 
										JOINT RightHandIndex4
										{
											OFFSET 1.19115619e-07 2.6397078 2.31537559e-06
											CHANNELS 3 Zrotation Yrotation Xrotation 
											End Site
											{
												OFFSET 0 0 0
											}
										}
									}
								}
							}
						}
						JOINT RightHandMiddle1
						{
							OFFSET 0.104109198 9.50295544 0.00677696662
							CHANNELS 3 Zrotation Yrotation Xrotation 
							JOINT RightHandMiddle2
							{
								OFFSET -4.00518747e-07 4.56873274 5.93760964e-06
								CHANNELS 3 Zrotation Yrotation Xrotation 
								JOINT RightHandMiddle3
								{
									OFFSET 7.54751455e-06 3.6549809 -3.29262286e-06
									CHANNELS 3 Zrotation Yrotation Xrotation 
									JOINT RightHandMiddle4
									{
										OFFSET -2.47242271e-06 2.74122977 5.72284435e-06
										CHANNELS 3 Zrotation Yrotation Xrotation 
										End Site
										{
											OFFSET 0 0 0
										}
									}
								}
							}
						}
					}
					JOINT RightHandRing1
					{
						OFFSET 0.0867536962 8.92171097 -2.26744866
						CHANNELS 3 Zrotation Yrotation Xrotation 
						JOINT RightHandRing2
						{
							OFFSET -8.49416485e-06 4.06109715 8.33849263e-08
							CHANNELS 3 Zrotation Yrotation Xrotation 
							JOINT RightHandRing3
							{
								OFFSET -2.69741424e-07 3.65497613 8.05873964e-06
								CHANNELS 3 Zrotation Yrotation Xrotation 
								JOINT RightHandRing4
								{
									OFFSET -1.75682811e-07 2.74124503 -6.02012545e-07
									CHANNELS 3 Zrotation Yrotation Xrotation 
									End Site
									{
										OFFSET 0 0 0
									}
								}
							}
						}
					}
				}
				JOINT RightHandPinky1
				{
					OFFSET -0.173490137 7.97699213 -4.46720457
					CHANNELS 3 Zrotation Yrotation Xrotation 
					JOINT RightHandPinky2
					{
						OFFSET -5.09637176e-06 3.35040545 -1.14142521e-05
						CHANNELS 3 Zrotation Yrotation Xrotation 
						JOINT RightHandPinky3
						{
							OFFSET -2.41064345e-06 2.84276104 3.31119791e-07
							CHANNELS 3 Zrotation Yrotation Xrotation 
							JOINT RightHandPinky4
							{
								OFFSET -4.84227395e-06 2.63970661 4.19883692e-06
								CHANNELS 3 Zrotation Yrotation Xrotation 
								End Site
								{
									OFFSET 0 0 0
								}
							}
						}
					}
				}
			}
			JOINT RightForeArmEnd
			{
				OFFSET -2.56183113e-14 -1.74232385e-16 -6.35784429e-17
				CHANNELS 3 Zrotation Yrotation Xrotation 
				End Site
				{
					OFFSET 0 0 0
				}
			}
		}
	}
	JOINT RightArmEnd
	{
		OFFSET -6.99860395e-14 1.22731819e-14 -1.81852944e-16
		CHANNELS 3 Zrotation Yrotation Xrotation 
		End Site
		{
			OFFSET 0 0 0
		}
	}
}
MOTION
Frames: 13
Frame Time: 0.033333
0.00206339773 89.6875169 0.432699401 0.0110238113 0.0342942868 1.49218072 0.0116867961 0.035777884 1.4132426 0.011836505 0.0358041997 1.23432239 0.0119842087 0.0358362299 0.996973033 -0.00165112926 -0.00568488116 -0.202252373 0 0 0 0 0 0 0 0 0 0 0 0 -0.0256366465 -0.011776697 0.971410745 -0.0220786457 -0.0118539046 0.757635545 -0.0121952527 -0.0103616529 0.234150401 0.000705569491 -0.00423076801 -0.277062626 0 0 0 0 0 0 0 0 0 0 0 0 0 0 0 0 0 0 0 0 0 0 0 0 0 0 0 0 0 0 0 0 0 0 0 0 0 0 0 0 0 0 0 0 0 0 0 0 0 0 0 0 0 0 0 0 0 0 0 0 0 0 0 0 0 0 
-214.431888 89.3021937 29.0678903 25.6231437 0.63838421 1.85632699 3.87736997 -0.624006444 -0.907799267 3.61207238 -0.55683894 -1.37609843 3.24334532 -0.473396641 -2.00131962 7.41119993 0.621008002 0.429204488 0 0 0 0 0 0 0 0 0 0 0 0 -4.59311147 -1.38826549 -2.94894121 -4.58853886 -1.34645758 -3.51740296 -4.58368625 -1.31256442 -4.81077782 -4.52995244 -1.24001235 -6.04626212 0 0 0 0 0 0 0 0 0 0 0 0 0 0 0 0 0 0 0 0 0 0 0 0 0 0 0 0 0 0 0 0 0 0 0 0 0 0 0 0 0 0 0 0 0 0 0 0 0 0 0 0 0 0 0 0 0 0 0 0 0 0 0 0 0 0 
-214.7505 89.3935706 29.0152018 44.627907 1.6234245 6.08188432 2.1252554 -0.859819161 0.270382833 1.67186747 -0.745482792 -0.957406185 1.05085781 -0.553263244 -2.55474922 14.437675 1.37387387 2.24561924 0 0 0 0 0 0 0 0 0 0 0 0 -14.1159122 -2.94483878 -5.74404849 -13.9018063 -2.52322134 -7.18691086 -12.9558643 -2.31602943 -10.2892919 -11.6514597 -2.18197556 -13.0432243 0 0 0 0 0 0 0 0 0 0 0 0 0 0 0 0 0 0 0 0 0 0 0 0 0 0 0 0 0 0 0 0 0 0 0 0 0 0 0 0 0 0 0 0 0 0 0 0 0 0 0 0 0 0 0 0 0 0 0 0 0 0 0 0 0 0 
-215.018907 89.406628 28.841149 55.9246197 1.66353775 8.70750265 -0.121160315 -1.20485571 1.30136524 -0.695383895 -1.06151375 -0.62216678 -1.46379362 -0.791063461 -3.11883633 15.0338275 2.39868142 1.35817782 0 0 0 0 0 0 0 0 0 0 0 0 -17.5259004 -3.9965589 -5.71126468 -17.1079807 -3.36891548 -7.85582162 -15.1012872 -3.25078877 -12.5557155 -12.4521943 -3.43316849 -16.5283074 0 0 0 0 0 0 0 0 0 0 0 0 0 0 0 0 0 0 0 0 0 0 0 0 0 0 0 0 0 0 0 0 0 0 0 0 0 0 0 0 0 0 0 0 0 0 0 0 0 0 0 0 0 0 0 0 0 0 0 0 0 0 0 0 0 0 
-215.298767 89.2768715 28.5490689 59.7996295 1.75517495 10.1498789 -1.08506061 -1.37185983 2.27483949 -1.76409564 -1.24456933 -0.260199604 -2.6449449 -0.976740133 -3.55609546 14.8056895 3.51743778 -0.0858332161 0 0 0 0 0 0 0 0 0 0 0 0 -18.8159563 -4.79496064 -4.9186207 -18.2099552 -4.00124271 -7.6303607 -15.1789458 -4.03190609 -13.7205679 -11.2778922 -4.63299395 -18.6983139 0 0 0 0 0 0 0 0 0 0 0 0 0 0 0 0 0 0 0 0 0 0 0 0 0 0 0 0 0 0 0 0 0 0 0 0 0 0 0 0 0 0 0 0 0 0 0 0 0 0 0 0 0 0 0 0 0 0 0 0 0 0 0 0 0 0 
-215.5338 89.0090335 28.0966228 62.3056442 1.92896587 11.5167702 -1.74371377 -1.47708394 3.20307696 -2.52302505 -1.36562426 0.118895432 -3.5011397 -1.1145702 -3.89977677 14.5749481 4.65897152 -1.47434577 0 0 0 0 0 0 0 0 0 0 0 0 -19.7918153 -5.5391328 -4.00358743 -19.0043552 -4.56760446 -7.22670638 -14.9825117 -4.72239347 -14.6165555 -9.88314062 -5.69038344 -20.5377601 0 0 0 0 0 0 0 0 0 0 0 0 0 0 0 0 0 0 0 0 0 0 0 0 0 0 0 0 0 0 0 0 0 0 0 0 0 0 0 0 0 0 0 0 0 0 0 0 0 0 0 0 0 0 0 0 0 0 0 0 0 0 0 0 0 0 
-215.582961 88.7160272 27.7362234 63.4652791 2.03119756 12.1539422 -1.97080215 -1.49513339 3.60515493 -2.79830219 -1.38907797 0.281332719 -3.82109184 -1.14815062 -4.0541653 14.4461304 5.23576658 -2.07382222 0 0 0 0 0 0 0 0 0 0 0 0 -20.1496714 -5.90963049 -3.57395958 -19.286118 -4.85639823 -7.0029684 -14.8293046 -5.06195432 -14.9576447 -9.2092291 -6.18187949 -21.2911608 0 0 0 0 0 0 0 0 0 0 0 0 0 0 0 0 0 0 0 0 0 0 0 0 0 0 0 0 0 0 0 0 0 0 0 0 0 0 0 0 0 0 0 0 0 0 0 0 0 0 0 0 0 0 0 0 0 0 0 0 0 0 0 0 0 0 
-215.375256 88.468509 27.4858325 64.480468 2.06198007 12.6353274 -2.11372244 -1.54916067 3.90393441 -2.98029379 -1.44640885 0.394573136 -4.0422685 -1.21524911 -4.18680582 14.3396322 5.70077277 -2.53236037 0 0 0 0 0 0 0 0 0 0 0 0 -20.4073484 -6.26097821 -3.23435403 -19.4892846 -5.14233438 -6.80433828 -14.6975266 -5.38304809 -15.1926532 -8.68156339 -6.61167435 -21.8464863 0 0 0 0 0 0 0 0 0 0 0 0 0 0 0 0 0 0 0 0 0 0 0 0 0 0 0 0 0 0 0 0 0 0 0 0 0 0 0 0 0 0 0 0 0 0 0 0 0 0 0 0 0 0 0 0 0 0 0 0 0 0 0 0 0 0 
-214.848799 88.3287923 27.3941698 65.3368484 2.04410941 12.8408933 -2.19018108 -1.62690948 4.04356445 -3.08463565 -1.5287361 0.402436132 -4.17777366 -1.31004284 -4.35364669 14.2700261 5.98410337 -2.90828074 0 0 0 0 0 0 0 0 0 0 0 0 -20.5877817 -6.51610812 -3.03160988 -19.625637 -5.36609515 -6.70259962 -14.5835913 -5.64446821 -15.4039016 -8.27656782 -6.95802031 -22.2865104 0 0 0 0 0 0 0 0 0 0 0 0 0 0 0 0 0 0 0 0 0 0 0 0 0 0 0 0 0 0 0 0 0 0 0 0 0 0 0 0 0 0 0 0 0 0 0 0 0 0 0 0 0 0 0 0 0 0 0 0 0 0 0 0 0 0 
-214.509776 88.2609071 27.1476122 65.9821366 2.08756252 12.9351776 -2.24310264 -1.63192749 4.11268246 -3.1592661 -1.53836512 0.383455196 -4.27348443 -1.32992794 -4.48949906 14.2357373 6.14131025 -3.1625562 0 0 0 0 0 0 0 0 0 0 0 0 -20.7188051 -6.62417621 -2.94755228 -19.7174141 -5.4734088 -6.70305881 -14.4960021 -5.79390966 -15.6165154 -7.9800552 -7.17568609 -22.6481063 0 0 0 0 0 0 0 0 0 0 0 0 0 0 0 0 0 0 0 0 0 0 0 0 0 0 0 0 0 0 0 0 0 0 0 0 0 0 0 0 0 0 0 0 0 0 0 0 0 0 0 0 0 0 0 0 0 0 0 0 0 0 0 0 0 0 
-214.25975 88.2521321 26.9155573 66.730276 2.08417748 13.1753827 -2.34860891 -1.71083972 4.33302594 -3.29539215 -1.61932361 0.479202197 -4.44360181 -1.41708102 -4.55937719 14.2124979 6.31059095 -3.47556352 0 0 0 0 0 0 0 0 0 0 0 0 -20.974447 -6.77162123 -2.76576687 -19.9172734 -5.60032905 -6.6591783 -14.4271051 -5.96581535 -15.8985239 -7.58710148 -7.42724886 -23.1609375 0 0 0 0 0 0 0 0 0 0 0 0 0 0 0 0 0 0 0 0 0 0 0 0 0 0 0 0 0 0 0 0 0 0 0 0 0 0 0 0 0 0 0 0 0 0 0 0 0 0 0 0 0 0 0 0 0 0 0 0 0 0 0 0 0 0 
-214.080402 88.3012025 26.9707149 67.4110093 2.07572295 13.3598424 -2.44049371 -1.79249975 4.53681006 -3.41672638 -1.70287056 0.563106937 -4.59767558 -1.50762409 -4.63508901 14.1902691 6.48449132 -3.78803812 0 0 0 0 0 0 0 0 0 0 0 0 -21.2156679 -6.92611146 -2.58042493 -20.1044048 -5.73245772 -6.6043799 -14.3505 -6.13930983 -16.1603146 -7.19409407 -7.67552 -23.6473679 0 0 0 0 0 0 0 0 0 0 0 0 0 0 0 0 0 0 0 0 0 0 0 0 0 0 0 0 0 0 0 0 0 0 0 0 0 0 0 0 0 0 0 0 0 0 0 0 0 0 0 0 0 0 0 0 0 0 0 0 0 0 0 0 0 0 
-213.975322 88.3115132 26.9889428 67.8892273 2.122454 13.4137393 -2.50313203 -1.80124044 4.62306251 -3.50064661 -1.7161289 0.567970246 -4.7017717 -1.52987162 -4.73842448 14.1704721 6.61516811 -4.0196537 0 0 0 0 0 0 0 0 0 0 0 0 -21.3683442 -7.01017812 -2.49128889 -20.2160716 -5.81474204 -6.60502517 -14.2811616 -6.25911252 -16.369416 -6.91101466 -7.85193743 -24.0020699 0 0 0 0 0 0 0 0 0 0 0 0 0 0 0 0 0 0 0 0 0 0 0 0 0 0 0 0 0 0 0 0 0 0 0 0 0 0 0 0 0 0 0 0 0 0 0 0 0 0 0 0 0 0 0 0 0 0 0 0 0 0 0 0 0 0 
